<svg width="300" height="106" viewBox="0 0 300 106" fill="none" xmlns="http://www.w3.org/2000/svg">
<path d="M122.256 36.4188C125.012 36.4188 127.661 36.9315 130.205 37.9559C132.748 38.945 135.098 40.393 137.252 42.3006L128.774 49.7195C126.725 48.2712 124.57 47.5467 122.309 47.5467C120.826 47.5468 119.448 47.8292 118.176 48.3943C116.905 48.9596 115.81 49.7372 114.891 50.7264C113.973 51.7155 113.248 52.8637 112.718 54.1707C112.189 55.4422 111.923 56.7843 111.923 58.1971C111.923 59.6455 112.188 61.0238 112.718 62.3309C113.248 63.6026 113.973 64.7333 114.891 65.7225C115.81 66.6762 116.887 67.453 118.124 68.0535C119.395 68.6187 120.773 68.9012 122.256 68.9012C123.952 68.9012 125.524 68.5131 126.972 67.7361C128.456 66.959 129.746 65.8631 130.841 64.45L139.584 71.5506C137.394 74.2354 134.797 76.3198 131.794 77.8035C128.827 79.2519 125.648 79.9764 122.256 79.9764C119.218 79.9764 116.375 79.4115 113.725 78.2811C111.111 77.1153 108.815 75.5426 106.836 73.5643C104.894 71.5507 103.356 69.2369 102.226 66.6229C101.096 63.9734 100.531 61.1644 100.531 58.1971C100.531 55.2298 101.096 52.439 102.226 49.825C103.357 47.1756 104.894 44.8619 106.836 42.8836C108.815 40.8701 111.111 39.2982 113.725 38.1678C116.375 37.002 119.218 36.4188 122.256 36.4188ZM261.314 49.7352C263.15 49.7352 264.972 49.9647 266.779 50.4236C268.615 50.8827 270.409 51.6576 272.159 52.7479C271.499 53.8667 270.882 54.9426 270.308 55.9754C269.734 56.9795 269.117 58.0411 268.458 59.16C266.994 58.4141 265.618 57.84 264.327 57.4383C263.064 57.0079 261.701 56.7928 260.238 56.7928C259.951 56.7928 259.621 56.807 259.248 56.8358C258.904 56.8358 258.574 56.893 258.258 57.0076C257.972 57.1223 257.713 57.2949 257.484 57.5242C257.283 57.7538 257.182 58.0841 257.182 58.5145C257.182 58.7726 257.255 59.0164 257.398 59.2459C257.513 59.4754 257.757 59.6763 258.129 59.8485C258.531 59.9919 259.062 60.15 259.721 60.3221C260.352 60.4944 261.042 60.6665 261.788 60.8387C262.562 60.9821 263.351 61.1679 264.154 61.3973C264.957 61.5981 265.775 61.8428 266.607 62.1297C267.439 62.3879 268.214 62.7316 268.931 63.1619C269.677 63.5636 270.337 64.052 270.911 64.6258C271.513 65.1709 271.986 65.8307 272.331 66.6053C272.589 67.1791 272.761 67.7961 272.847 68.4559C272.962 69.1157 273.019 69.7613 273.019 70.3924C273.019 72.2857 272.632 73.835 271.858 75.0399C271.112 76.2449 270.122 77.2064 268.888 77.9236C267.683 78.6409 266.32 79.1283 264.799 79.3865C263.308 79.6734 261.816 79.8172 260.324 79.8172L259.626 79.8065C257.997 79.7563 256.379 79.5305 254.772 79.1287C252.965 78.6697 251.229 78.0385 249.565 77.2352C249.536 77.2351 249.493 77.2214 249.436 77.1922C249.379 77.1634 249.307 77.1348 249.221 77.1063C249.078 77.0202 248.963 76.9334 248.876 76.8475C248.819 76.7328 248.791 76.647 248.791 76.5897C248.791 76.5608 248.949 76.2598 249.264 75.6863C249.58 75.0838 249.952 74.4088 250.382 73.6629C250.784 73.0031 251.157 72.3718 251.501 71.7694C251.846 71.1383 252.133 70.6364 252.363 70.2635C252.678 70.4069 252.908 70.5222 253.051 70.6082C253.223 70.6656 253.381 70.7372 253.524 70.8231C254.786 71.4542 256.049 71.9417 257.311 72.286C258.573 72.6302 259.894 72.8026 261.271 72.8026H261.831C262.031 72.8025 262.232 72.7889 262.433 72.7596C262.863 72.7595 263.25 72.7015 263.594 72.5867C263.939 72.4433 264.226 72.2423 264.456 71.9842C264.714 71.7261 264.842 71.3391 264.842 70.8231C264.842 70.4501 264.699 70.1626 264.413 69.9617C264.126 69.7323 263.824 69.5456 263.508 69.4022C263.308 69.3162 263.121 69.2447 262.949 69.1873C262.461 68.9865 261.959 68.8427 261.443 68.7567C260.955 68.6418 260.453 68.5275 259.937 68.4129C259.248 68.2695 258.573 68.1256 257.914 67.9822C257.254 67.81 256.608 67.6378 255.977 67.4656C255.317 67.2648 254.7 67.0496 254.126 66.8201C253.553 66.562 253.008 66.2752 252.492 65.9598C251.43 65.3 250.584 64.4391 249.953 63.3777C249.321 62.2876 249.005 60.8527 249.005 59.074C249.005 57.8117 249.279 56.5921 249.824 55.4158C250.369 54.2683 251.057 53.3352 251.889 52.618C252.75 51.8723 253.696 51.2846 254.729 50.8543C255.762 50.424 256.838 50.1365 257.957 49.993C259.075 49.8208 260.195 49.7352 261.314 49.7352ZM156.005 49.7391C158.071 49.7391 160.022 50.1409 161.858 50.9442C163.694 51.7187 165.286 52.7796 166.634 54.1277C168.011 55.476 169.086 57.0683 169.861 58.9041C170.664 60.7399 171.066 62.6904 171.066 64.7557C171.066 66.8211 170.664 68.7723 169.861 70.6082C169.086 72.444 168.011 74.0364 166.634 75.3846C165.286 76.7328 163.694 77.808 161.858 78.6112C160.022 79.3857 158.071 79.7733 156.005 79.7733C153.94 79.7732 151.99 79.3856 150.154 78.6112C148.318 77.808 146.711 76.7327 145.334 75.3846C143.986 74.0363 142.91 72.4441 142.107 70.6082C141.332 68.7723 140.946 66.8211 140.946 64.7557C140.946 62.6905 141.332 60.7542 142.107 58.9471C142.91 57.1112 143.986 55.519 145.334 54.1707C146.711 52.7938 148.318 51.7187 150.154 50.9442C151.99 50.141 153.94 49.7391 156.005 49.7391ZM192.046 63.9276V49.7205H200.28V78.8875H192.224L183.239 64.7684V78.8875H175.006V49.7205H183.062L192.046 63.9276ZM243.939 78.8875H235.396V49.7205H243.939V78.8875ZM299.987 57.2889H291.754V78.8875H283.433V57.2889H275.201V49.7205H299.987V57.2889ZM213.736 59.4969L221.713 49.7225H231.525L219.654 63.4666L231.151 78.783H221.713L213.736 69.0086V78.783H205.759V49.7225H213.736V59.4969ZM156.005 57.5272C155.03 57.5272 154.112 57.7282 153.251 58.1297C152.42 58.5026 151.688 59.0189 151.057 59.6785C150.455 60.3382 149.967 61.1126 149.594 62.0018C149.25 62.8622 149.078 63.7805 149.078 64.7557C149.078 65.7309 149.25 66.6634 149.594 67.5526C149.967 68.4131 150.455 69.1883 151.057 69.8768C151.688 70.5365 152.42 71.067 153.251 71.4686C154.112 71.8414 155.03 72.0281 156.005 72.0281C156.981 72.0281 157.884 71.8413 158.716 71.4686C159.577 71.0671 160.308 70.5364 160.911 69.8768C161.542 69.1883 162.029 68.4131 162.374 67.5526C162.718 66.6633 162.89 65.731 162.89 64.7557C162.89 63.7805 162.718 62.8622 162.374 62.0018C162.029 61.1127 161.542 60.3382 160.911 59.6785C160.308 59.0189 159.577 58.5026 158.716 58.1297C157.884 57.7281 156.981 57.5272 156.005 57.5272Z" fill="url(#paint0_linear_1500_939)"/>
<path d="M42.1705 0L35.7125 30.2783L45.5026 38.4402L48.4331 24.6984L61.5291 40.034L81.5864 37.94L71.0486 55.1337L79.2388 73.5625L59.6294 68.8536L44.6333 82.3373L43.4703 67.5401L32.6924 74.3344L35.183 106L62.7607 81.2024L98.8227 89.8629L83.7608 55.9722L103.141 24.3518L66.2547 28.203L42.1705 0Z" fill="url(#paint1_linear_1500_939)"/>
<path d="M0 50.1942L27.4966 66.095L38.2743 59.3L25.4249 51.8698L38.4652 46.4692L28.6835 38.3145L0 50.1942Z" fill="url(#paint2_linear_1500_939)"/>
<defs>
<linearGradient id="paint0_linear_1500_939" x1="208.248" y1="37.5048" x2="208.248" y2="79.5802" gradientUnits="userSpaceOnUse">
<stop stop-color="#00AAD4"/>
<stop offset="1" stop-color="#0088AA"/>
</linearGradient>
<linearGradient id="paint1_linear_1500_939" x1="99.3008" y1="89.8557" x2="50.3742" y2="40.9292" gradientUnits="userSpaceOnUse">
<stop stop-color="#AA8800"/>
<stop offset="1" stop-color="#D4AA00"/>
</linearGradient>
<linearGradient id="paint2_linear_1500_939" x1="18.9685" y1="11.164" x2="78.2072" y2="70.4028" gradientUnits="userSpaceOnUse">
<stop stop-color="#00AAD4"/>
<stop offset="1" stop-color="#0088AA"/>
</linearGradient>
</defs>
</svg>
