<svg width="256" height="256" viewBox="0 0 256 256" fill="none" xmlns="http://www.w3.org/2000/svg">
<path d="M154.864 71.3965L238.18 62.7549L194.399 133.714L228.416 209.749L146.985 190.321L84.7754 245.892L78.1875 162.702L5.33398 120.851L82.8682 88.9502L83.1553 89.1875L100.544 8.20508L154.864 71.3965ZM94.1328 85.7012L112 100.5L117.689 75.4355L141.941 103.647L179.084 99.7949L159.57 131.426L174.736 165.327L138.423 156.665L110.652 181.47L108.5 155L88.54 166.747L93.1523 225L144.222 179.382L211.003 195.313L183.11 132.968L219 74.7979L150.692 81.8828L106.092 30L94.1328 85.7012ZM118.229 118.234L118.43 118.401L118.166 118.51L118.15 118.579L118.1 118.536L97.4307 127.039L116.796 138.514L117.174 138.292L118.989 160.614L135.659 145.725L157.323 150.893L148.28 130.679L159.904 111.838L137.769 114.134L123.047 97.0078L118.229 118.234ZM28 122.339L78.9199 151.59L98 139L75.083 125.421L99.2314 115.486L81.1172 100.484L28 122.339Z" fill="white"/>
<path d="M106.092 30L94.1328 85.7007L112 100.5L117.689 75.4358L141.941 103.647L179.084 99.7953L159.57 131.425L174.737 165.327L138.423 156.665L110.653 181.47L108.5 155L88.54 166.747L93.1522 225L144.222 179.382L211.003 195.314L183.111 132.968L219 74.7981L150.692 81.8829L106.092 30Z" fill="url(#paint0_linear_19_7465)"/>
<path d="M28 122.338L78.9195 151.59L98 139L75.0829 125.421L99.2316 115.486L81.1173 100.484L28 122.338Z" fill="url(#paint1_linear_19_7465)"/>
<defs>
<linearGradient id="paint0_linear_19_7465" x1="211.888" y1="195.301" x2="121.884" y2="104.698" gradientUnits="userSpaceOnUse">
<stop stop-color="#AA8800"/>
<stop offset="1" stop-color="#D4AA00"/>
</linearGradient>
<linearGradient id="paint1_linear_19_7465" x1="63.1266" y1="50.5374" x2="172.101" y2="160.236" gradientUnits="userSpaceOnUse">
<stop stop-color="#00AAD4"/>
<stop offset="1" stop-color="#0088AA"/>
</linearGradient>
</defs>
</svg>
