<svg width="191" height="195" viewBox="0 0 191 195" fill="none" xmlns="http://www.w3.org/2000/svg">
<path d="M78.092 0L66.1328 55.7007L84.2626 70.7154L89.6894 45.4358L113.941 73.6474L151.084 69.7953L131.57 101.425L146.737 135.327L110.423 126.665L82.6528 151.47L80.499 124.248L60.54 136.747L65.1522 195L116.222 149.382L183.003 165.314L155.111 102.968L191 44.7981L122.692 51.8829L78.092 0Z" fill="url(#paint0_linear_19_7467)"/>
<path d="M0 92.3381L50.9195 121.59L70.8781 109.089L47.0829 95.4207L71.2316 85.4856L53.1173 70.4841L0 92.3382V92.3381Z" fill="url(#paint1_linear_19_7467)"/>
<defs>
<linearGradient id="paint0_linear_19_7467" x1="183.888" y1="165.301" x2="93.884" y2="74.6983" gradientUnits="userSpaceOnUse">
<stop stop-color="#AA8800"/>
<stop offset="1" stop-color="#D4AA00"/>
</linearGradient>
<linearGradient id="paint1_linear_19_7467" x1="35.1266" y1="20.5374" x2="144.101" y2="130.236" gradientUnits="userSpaceOnUse">
<stop stop-color="#00AAD4"/>
<stop offset="1" stop-color="#0088AA"/>
</linearGradient>
</defs>
</svg>
