<svg width="256" height="256" viewBox="0 0 256 256" fill="none" xmlns="http://www.w3.org/2000/svg">
<g clip-path="url(#clip0_19_7465)">
<rect width="256" height="256" fill="white"/>
<path d="M106.092 30L94.1328 85.7007L112.263 100.715L117.689 75.4358L141.941 103.647L179.084 99.7953L159.57 131.425L174.737 165.327L138.423 156.665L110.653 181.47L108.499 154.248L88.54 166.747L93.1522 225L144.222 179.382L211.003 195.314L183.111 132.968L219 74.7981L150.692 81.8829L106.092 30Z" fill="url(#paint0_linear_19_7465)"/>
<path d="M28 122.338L78.9195 151.59L98.8781 139.089L75.0829 125.421L99.2316 115.486L81.1173 100.484L28 122.338V122.338Z" fill="url(#paint1_linear_19_7465)"/>
</g>
<defs>
<linearGradient id="paint0_linear_19_7465" x1="211.888" y1="195.301" x2="121.884" y2="104.698" gradientUnits="userSpaceOnUse">
<stop stop-color="#AA8800"/>
<stop offset="1" stop-color="#D4AA00"/>
</linearGradient>
<linearGradient id="paint1_linear_19_7465" x1="63.1266" y1="50.5374" x2="172.101" y2="160.236" gradientUnits="userSpaceOnUse">
<stop stop-color="#00AAD4"/>
<stop offset="1" stop-color="#0088AA"/>
</linearGradient>
<clipPath id="clip0_19_7465">
<rect width="256" height="256" rx="128" fill="white"/>
</clipPath>
</defs>
</svg>
