<svg width="322" height="130" viewBox="0 0 322 130" fill="none" xmlns="http://www.w3.org/2000/svg">
<mask id="path-1-outside-1_1500_955" maskUnits="userSpaceOnUse" x="108.531" y="45.4188" width="206" height="50" fill="black">
<rect fill="white" x="108.531" y="45.4188" width="206" height="50"/>
<path d="M133.256 48.4188C136.012 48.4188 138.661 48.9315 141.205 49.9559C143.748 50.945 146.098 52.393 148.252 54.3006L139.774 61.7195C137.725 60.2712 135.57 59.5467 133.309 59.5467C131.826 59.5468 130.448 59.8292 129.176 60.3943C127.905 60.9596 126.81 61.7372 125.891 62.7264C124.973 63.7155 124.248 64.8637 123.718 66.1707C123.189 67.4422 122.923 68.7843 122.923 70.1971C122.923 71.6455 123.188 73.0238 123.718 74.3309C124.248 75.6026 124.973 76.7333 125.891 77.7225C126.81 78.6762 127.887 79.453 129.124 80.0535C130.395 80.6187 131.773 80.9012 133.256 80.9012C134.952 80.9012 136.524 80.5131 137.972 79.7361C139.456 78.959 140.746 77.8631 141.841 76.45L150.584 83.5506C148.394 86.2354 145.797 88.3198 142.794 89.8035C139.827 91.2519 136.648 91.9764 133.256 91.9764C130.218 91.9764 127.375 91.4115 124.725 90.2811C122.111 89.1153 119.815 87.5426 117.836 85.5643C115.894 83.5507 114.356 81.2369 113.226 78.6229C112.096 75.9734 111.531 73.1644 111.531 70.1971C111.531 67.2298 112.096 64.439 113.226 61.825C114.357 59.1756 115.894 56.8619 117.836 54.8836C119.815 52.8701 122.111 51.2982 124.725 50.1678C127.375 49.002 130.218 48.4188 133.256 48.4188ZM272.314 61.7352C274.15 61.7352 275.972 61.9647 277.779 62.4236C279.615 62.8827 281.409 63.6576 283.159 64.7479C282.499 65.8667 281.882 66.9426 281.308 67.9754C280.734 68.9795 280.117 70.0411 279.458 71.16C277.994 70.4141 276.618 69.84 275.327 69.4383C274.064 69.0079 272.701 68.7928 271.238 68.7928C270.951 68.7928 270.621 68.807 270.248 68.8358C269.904 68.8358 269.574 68.893 269.258 69.0076C268.972 69.1223 268.713 69.2949 268.484 69.5242C268.283 69.7538 268.182 70.0841 268.182 70.5145C268.182 70.7726 268.255 71.0164 268.398 71.2459C268.513 71.4754 268.757 71.6763 269.129 71.8485C269.531 71.9919 270.062 72.15 270.721 72.3221C271.352 72.4944 272.042 72.6665 272.788 72.8387C273.562 72.9821 274.351 73.1679 275.154 73.3973C275.957 73.5981 276.775 73.8428 277.607 74.1297C278.439 74.3879 279.214 74.7316 279.931 75.1619C280.677 75.5636 281.337 76.052 281.911 76.6258C282.513 77.1709 282.986 77.8307 283.331 78.6053C283.589 79.1791 283.761 79.7961 283.847 80.4559C283.962 81.1157 284.019 81.7613 284.019 82.3924C284.019 84.2857 283.632 85.835 282.858 87.0399C282.112 88.2449 281.122 89.2064 279.888 89.9236C278.683 90.6409 277.32 91.1283 275.799 91.3865C274.308 91.6734 272.816 91.8172 271.324 91.8172L270.626 91.8065C268.997 91.7563 267.379 91.5305 265.772 91.1287C263.965 90.6697 262.229 90.0385 260.565 89.2352C260.536 89.2351 260.493 89.2214 260.436 89.1922C260.379 89.1634 260.307 89.1348 260.221 89.1063C260.078 89.0202 259.963 88.9334 259.876 88.8475C259.819 88.7328 259.791 88.647 259.791 88.5897C259.791 88.5608 259.949 88.2598 260.264 87.6863C260.58 87.0838 260.952 86.4088 261.382 85.6629C261.784 85.0031 262.157 84.3718 262.501 83.7694C262.846 83.1383 263.133 82.6364 263.363 82.2635C263.678 82.4069 263.908 82.5222 264.051 82.6082C264.223 82.6656 264.381 82.7372 264.524 82.8231C265.786 83.4542 267.049 83.9417 268.311 84.286C269.573 84.6302 270.894 84.8026 272.271 84.8026H272.831C273.031 84.8025 273.232 84.7889 273.433 84.7596C273.863 84.7595 274.25 84.7015 274.594 84.5867C274.939 84.4433 275.226 84.2423 275.456 83.9842C275.714 83.7261 275.842 83.3391 275.842 82.8231C275.842 82.4501 275.699 82.1626 275.413 81.9617C275.126 81.7323 274.824 81.5456 274.508 81.4022C274.308 81.3162 274.121 81.2447 273.949 81.1873C273.461 80.9865 272.959 80.8427 272.443 80.7567C271.955 80.6418 271.453 80.5275 270.937 80.4129C270.248 80.2695 269.573 80.1256 268.914 79.9822C268.254 79.81 267.608 79.6378 266.977 79.4656C266.317 79.2648 265.7 79.0496 265.126 78.8201C264.553 78.562 264.008 78.2752 263.492 77.9598C262.43 77.3 261.584 76.4391 260.953 75.3777C260.321 74.2876 260.005 72.8527 260.005 71.074C260.005 69.8117 260.279 68.5921 260.824 67.4158C261.369 66.2683 262.057 65.3352 262.889 64.618C263.75 63.8723 264.696 63.2846 265.729 62.8543C266.762 62.424 267.838 62.1365 268.957 61.993C270.075 61.8208 271.195 61.7352 272.314 61.7352ZM167.005 61.7391C169.071 61.7391 171.022 62.1409 172.858 62.9442C174.694 63.7187 176.286 64.7796 177.634 66.1277C179.011 67.476 180.086 69.0683 180.861 70.9041C181.664 72.7399 182.066 74.6904 182.066 76.7557C182.066 78.8211 181.664 80.7723 180.861 82.6082C180.086 84.444 179.011 86.0364 177.634 87.3846C176.286 88.7328 174.694 89.808 172.858 90.6112C171.022 91.3857 169.071 91.7733 167.005 91.7733C164.94 91.7732 162.99 91.3856 161.154 90.6112C159.318 89.808 157.711 88.7327 156.334 87.3846C154.986 86.0363 153.91 84.4441 153.107 82.6082C152.332 80.7723 151.946 78.8211 151.946 76.7557C151.946 74.6905 152.332 72.7542 153.107 70.9471C153.91 69.1112 154.986 67.519 156.334 66.1707C157.711 64.7938 159.318 63.7187 161.154 62.9442C162.99 62.141 164.94 61.7391 167.005 61.7391ZM203.046 75.9276V61.7205H211.28V90.8875H203.224L194.239 76.7684V90.8875H186.006V61.7205H194.062L203.046 75.9276ZM254.939 90.8875H246.396V61.7205H254.939V90.8875ZM310.987 69.2889H302.754V90.8875H294.433V69.2889H286.201V61.7205H310.987V69.2889ZM224.736 71.4969L232.713 61.7225H242.525L230.654 75.4666L242.151 90.783H232.713L224.736 81.0086V90.783H216.759V61.7225H224.736V71.4969ZM167.005 69.5272C166.03 69.5272 165.112 69.7282 164.251 70.1297C163.42 70.5026 162.688 71.0189 162.057 71.6785C161.455 72.3382 160.967 73.1126 160.594 74.0018C160.25 74.8622 160.078 75.7805 160.078 76.7557C160.078 77.7309 160.25 78.6634 160.594 79.5526C160.967 80.4131 161.455 81.1883 162.057 81.8768C162.688 82.5365 163.42 83.067 164.251 83.4686C165.112 83.8414 166.03 84.0281 167.005 84.0281C167.981 84.0281 168.884 83.8413 169.716 83.4686C170.577 83.0671 171.308 82.5364 171.911 81.8768C172.542 81.1883 173.029 80.4131 173.374 79.5526C173.718 78.6633 173.89 77.731 173.89 76.7557C173.89 75.7805 173.718 74.8622 173.374 74.0018C173.029 73.1127 172.542 72.3382 171.911 71.6785C171.308 71.0189 170.577 70.5026 169.716 70.1297C168.884 69.7281 167.981 69.5272 167.005 69.5272Z"/>
</mask>
<path d="M133.256 48.4188C136.012 48.4188 138.661 48.9315 141.205 49.9559C143.748 50.945 146.098 52.393 148.252 54.3006L139.774 61.7195C137.725 60.2712 135.57 59.5467 133.309 59.5467C131.826 59.5468 130.448 59.8292 129.176 60.3943C127.905 60.9596 126.81 61.7372 125.891 62.7264C124.973 63.7155 124.248 64.8637 123.718 66.1707C123.189 67.4422 122.923 68.7843 122.923 70.1971C122.923 71.6455 123.188 73.0238 123.718 74.3309C124.248 75.6026 124.973 76.7333 125.891 77.7225C126.81 78.6762 127.887 79.453 129.124 80.0535C130.395 80.6187 131.773 80.9012 133.256 80.9012C134.952 80.9012 136.524 80.5131 137.972 79.7361C139.456 78.959 140.746 77.8631 141.841 76.45L150.584 83.5506C148.394 86.2354 145.797 88.3198 142.794 89.8035C139.827 91.2519 136.648 91.9764 133.256 91.9764C130.218 91.9764 127.375 91.4115 124.725 90.2811C122.111 89.1153 119.815 87.5426 117.836 85.5643C115.894 83.5507 114.356 81.2369 113.226 78.6229C112.096 75.9734 111.531 73.1644 111.531 70.1971C111.531 67.2298 112.096 64.439 113.226 61.825C114.357 59.1756 115.894 56.8619 117.836 54.8836C119.815 52.8701 122.111 51.2982 124.725 50.1678C127.375 49.002 130.218 48.4188 133.256 48.4188ZM272.314 61.7352C274.15 61.7352 275.972 61.9647 277.779 62.4236C279.615 62.8827 281.409 63.6576 283.159 64.7479C282.499 65.8667 281.882 66.9426 281.308 67.9754C280.734 68.9795 280.117 70.0411 279.458 71.16C277.994 70.4141 276.618 69.84 275.327 69.4383C274.064 69.0079 272.701 68.7928 271.238 68.7928C270.951 68.7928 270.621 68.807 270.248 68.8358C269.904 68.8358 269.574 68.893 269.258 69.0076C268.972 69.1223 268.713 69.2949 268.484 69.5242C268.283 69.7538 268.182 70.0841 268.182 70.5145C268.182 70.7726 268.255 71.0164 268.398 71.2459C268.513 71.4754 268.757 71.6763 269.129 71.8485C269.531 71.9919 270.062 72.15 270.721 72.3221C271.352 72.4944 272.042 72.6665 272.788 72.8387C273.562 72.9821 274.351 73.1679 275.154 73.3973C275.957 73.5981 276.775 73.8428 277.607 74.1297C278.439 74.3879 279.214 74.7316 279.931 75.1619C280.677 75.5636 281.337 76.052 281.911 76.6258C282.513 77.1709 282.986 77.8307 283.331 78.6053C283.589 79.1791 283.761 79.7961 283.847 80.4559C283.962 81.1157 284.019 81.7613 284.019 82.3924C284.019 84.2857 283.632 85.835 282.858 87.0399C282.112 88.2449 281.122 89.2064 279.888 89.9236C278.683 90.6409 277.32 91.1283 275.799 91.3865C274.308 91.6734 272.816 91.8172 271.324 91.8172L270.626 91.8065C268.997 91.7563 267.379 91.5305 265.772 91.1287C263.965 90.6697 262.229 90.0385 260.565 89.2352C260.536 89.2351 260.493 89.2214 260.436 89.1922C260.379 89.1634 260.307 89.1348 260.221 89.1063C260.078 89.0202 259.963 88.9334 259.876 88.8475C259.819 88.7328 259.791 88.647 259.791 88.5897C259.791 88.5608 259.949 88.2598 260.264 87.6863C260.58 87.0838 260.952 86.4088 261.382 85.6629C261.784 85.0031 262.157 84.3718 262.501 83.7694C262.846 83.1383 263.133 82.6364 263.363 82.2635C263.678 82.4069 263.908 82.5222 264.051 82.6082C264.223 82.6656 264.381 82.7372 264.524 82.8231C265.786 83.4542 267.049 83.9417 268.311 84.286C269.573 84.6302 270.894 84.8026 272.271 84.8026H272.831C273.031 84.8025 273.232 84.7889 273.433 84.7596C273.863 84.7595 274.25 84.7015 274.594 84.5867C274.939 84.4433 275.226 84.2423 275.456 83.9842C275.714 83.7261 275.842 83.3391 275.842 82.8231C275.842 82.4501 275.699 82.1626 275.413 81.9617C275.126 81.7323 274.824 81.5456 274.508 81.4022C274.308 81.3162 274.121 81.2447 273.949 81.1873C273.461 80.9865 272.959 80.8427 272.443 80.7567C271.955 80.6418 271.453 80.5275 270.937 80.4129C270.248 80.2695 269.573 80.1256 268.914 79.9822C268.254 79.81 267.608 79.6378 266.977 79.4656C266.317 79.2648 265.7 79.0496 265.126 78.8201C264.553 78.562 264.008 78.2752 263.492 77.9598C262.43 77.3 261.584 76.4391 260.953 75.3777C260.321 74.2876 260.005 72.8527 260.005 71.074C260.005 69.8117 260.279 68.5921 260.824 67.4158C261.369 66.2683 262.057 65.3352 262.889 64.618C263.75 63.8723 264.696 63.2846 265.729 62.8543C266.762 62.424 267.838 62.1365 268.957 61.993C270.075 61.8208 271.195 61.7352 272.314 61.7352ZM167.005 61.7391C169.071 61.7391 171.022 62.1409 172.858 62.9442C174.694 63.7187 176.286 64.7796 177.634 66.1277C179.011 67.476 180.086 69.0683 180.861 70.9041C181.664 72.7399 182.066 74.6904 182.066 76.7557C182.066 78.8211 181.664 80.7723 180.861 82.6082C180.086 84.444 179.011 86.0364 177.634 87.3846C176.286 88.7328 174.694 89.808 172.858 90.6112C171.022 91.3857 169.071 91.7733 167.005 91.7733C164.94 91.7732 162.99 91.3856 161.154 90.6112C159.318 89.808 157.711 88.7327 156.334 87.3846C154.986 86.0363 153.91 84.4441 153.107 82.6082C152.332 80.7723 151.946 78.8211 151.946 76.7557C151.946 74.6905 152.332 72.7542 153.107 70.9471C153.91 69.1112 154.986 67.519 156.334 66.1707C157.711 64.7938 159.318 63.7187 161.154 62.9442C162.99 62.141 164.94 61.7391 167.005 61.7391ZM203.046 75.9276V61.7205H211.28V90.8875H203.224L194.239 76.7684V90.8875H186.006V61.7205H194.062L203.046 75.9276ZM254.939 90.8875H246.396V61.7205H254.939V90.8875ZM310.987 69.2889H302.754V90.8875H294.433V69.2889H286.201V61.7205H310.987V69.2889ZM224.736 71.4969L232.713 61.7225H242.525L230.654 75.4666L242.151 90.783H232.713L224.736 81.0086V90.783H216.759V61.7225H224.736V71.4969ZM167.005 69.5272C166.03 69.5272 165.112 69.7282 164.251 70.1297C163.42 70.5026 162.688 71.0189 162.057 71.6785C161.455 72.3382 160.967 73.1126 160.594 74.0018C160.25 74.8622 160.078 75.7805 160.078 76.7557C160.078 77.7309 160.25 78.6634 160.594 79.5526C160.967 80.4131 161.455 81.1883 162.057 81.8768C162.688 82.5365 163.42 83.067 164.251 83.4686C165.112 83.8414 166.03 84.0281 167.005 84.0281C167.981 84.0281 168.884 83.8413 169.716 83.4686C170.577 83.0671 171.308 82.5364 171.911 81.8768C172.542 81.1883 173.029 80.4131 173.374 79.5526C173.718 78.6633 173.89 77.731 173.89 76.7557C173.89 75.7805 173.718 74.8622 173.374 74.0018C173.029 73.1127 172.542 72.3382 171.911 71.6785C171.308 71.0189 170.577 70.5026 169.716 70.1297C168.884 69.7281 167.981 69.5272 167.005 69.5272Z" fill="url(#paint0_linear_1500_955)"/>
<path d="M133.256 48.4188L133.256 45.4188L133.256 45.4188L133.256 48.4188ZM141.205 49.9559L140.084 52.7386L140.1 52.7454L140.117 52.7519L141.205 49.9559ZM148.252 54.3006L150.228 56.5583L152.793 54.3137L150.241 52.0543L148.252 54.3006ZM139.774 61.7195L138.042 64.1693L139.971 65.533L141.749 63.9772L139.774 61.7195ZM133.309 59.5467L133.309 56.5467L133.309 56.5467L133.309 59.5467ZM129.176 60.3943L127.958 57.6529L127.958 57.6529L129.176 60.3943ZM125.891 62.7264L123.693 60.685L123.693 60.6851L125.891 62.7264ZM123.718 66.1707L126.488 67.3245L126.493 67.3112L126.498 67.2978L123.718 66.1707ZM122.923 70.1971L119.923 70.197V70.1971H122.923ZM123.718 74.3309L120.938 75.458L120.943 75.4714L120.949 75.4847L123.718 74.3309ZM125.891 77.7225L123.693 79.7638L123.711 79.7838L123.73 79.8035L125.891 77.7225ZM129.124 80.0535L127.813 82.7521L127.859 82.7743L127.905 82.795L129.124 80.0535ZM133.256 80.9012L133.256 83.9012H133.256V80.9012ZM137.972 79.7361L136.58 77.0787L136.567 77.0856L136.554 77.0926L137.972 79.7361ZM141.841 76.45L143.733 74.1213L141.35 72.1864L139.47 74.6123L141.841 76.45ZM150.584 83.5506L152.909 85.447L154.81 83.1173L152.476 81.2218L150.584 83.5506ZM142.794 89.8035L144.11 92.4995L144.117 92.4963L144.123 92.4931L142.794 89.8035ZM133.256 91.9764L133.256 94.9764H133.256V91.9764ZM124.725 90.2811L123.503 93.021L123.525 93.0309L123.548 93.0404L124.725 90.2811ZM117.836 85.5643L115.678 87.6474L115.696 87.6666L115.715 87.6856L117.836 85.5643ZM113.226 78.6229L110.467 79.8002L110.47 79.8069L110.473 79.8136L113.226 78.6229ZM111.531 70.1971L108.531 70.197V70.1971H111.531ZM113.226 61.825L115.98 63.0157L115.983 63.009L115.985 63.0023L113.226 61.825ZM117.836 54.8836L115.696 52.7811L115.696 52.7815L117.836 54.8836ZM124.725 50.1678L125.916 52.9213L125.925 52.9176L125.933 52.9137L124.725 50.1678ZM272.314 61.7352L272.314 58.7352H272.314V61.7352ZM277.779 62.4236L277.04 65.3314L277.051 65.3341L277.779 62.4236ZM283.159 64.7479L285.743 66.2719L287.23 63.7497L284.745 62.2015L283.159 64.7479ZM281.308 67.9754L283.913 69.4639L283.922 69.4482L283.931 69.4323L281.308 67.9754ZM279.458 71.16L278.095 73.8327L280.608 75.1141L282.042 72.6839L279.458 71.16ZM275.327 69.4383L274.359 72.2778L274.397 72.2909L274.435 72.3029L275.327 69.4383ZM271.238 68.7928L271.238 65.7928L271.238 65.7928L271.238 68.7928ZM270.248 68.8358L270.248 71.8358L270.363 71.8357L270.478 71.8269L270.248 68.8358ZM269.258 69.0076L268.233 66.1882L268.188 66.2045L268.144 66.2222L269.258 69.0076ZM268.484 69.5242L266.363 67.4026L266.292 67.4734L266.226 67.5488L268.484 69.5242ZM268.182 70.5145L265.182 70.5145L265.182 70.5148L268.182 70.5145ZM268.398 71.2459L271.081 69.9039L271.017 69.7767L270.942 69.656L268.398 71.2459ZM269.129 71.8485L267.872 74.5723L267.994 74.6286L268.121 74.6737L269.129 71.8485ZM270.721 72.3221L271.511 69.4279L271.495 69.4235L271.479 69.4193L270.721 72.3221ZM272.788 72.8387L272.113 75.7619L272.177 75.7766L272.241 75.7885L272.788 72.8387ZM275.154 73.3973L274.33 76.2819L274.378 76.2956L274.426 76.3077L275.154 73.3973ZM277.607 74.1297L276.629 76.9658L276.673 76.9811L276.718 76.9949L277.607 74.1297ZM279.931 75.1619L278.388 77.7344L278.447 77.7703L278.509 77.8033L279.931 75.1619ZM281.911 76.6258L279.789 78.7471L279.842 78.8001L279.898 78.8503L281.911 76.6258ZM283.331 78.6053L280.589 79.8237L280.595 79.8362L283.331 78.6053ZM283.847 80.4559L280.872 80.844L280.881 80.9073L280.892 80.9702L283.847 80.4559ZM284.019 82.3924L287.019 82.3925V82.3924H284.019ZM282.858 87.0399L280.334 85.4177L280.321 85.4391L280.307 85.4607L282.858 87.0399ZM279.888 89.9236L278.38 87.3302L278.367 87.3379L278.354 87.3457L279.888 89.9236ZM275.799 91.3865L275.297 88.4289L275.265 88.4343L275.233 88.4405L275.799 91.3865ZM271.324 91.8172L271.278 94.8169L271.301 94.8172H271.324V91.8172ZM270.626 91.8065L270.533 94.805L270.556 94.8058L270.579 94.8061L270.626 91.8065ZM265.772 91.1287L265.034 94.0364L265.044 94.0391L265.772 91.1287ZM260.565 89.2352L261.869 86.5335L261.253 86.2359L260.568 86.2352L260.565 89.2352ZM260.436 89.1922L261.801 86.5205L261.791 86.5158L261.782 86.5111L260.436 89.1922ZM260.221 89.1063L258.678 91.6791L258.961 91.8488L259.274 91.9529L260.221 89.1063ZM259.876 88.8475L257.193 90.1885L257.411 90.6253L257.757 90.9703L259.876 88.8475ZM259.791 88.5897L256.791 88.5749L256.791 88.5823V88.5897H259.791ZM260.264 87.6863L262.893 89.1322L262.908 89.1054L262.922 89.0783L260.264 87.6863ZM261.382 85.6629L258.82 84.1031L258.801 84.1332L258.784 84.1637L261.382 85.6629ZM262.501 83.7694L265.106 85.2578L265.121 85.232L265.135 85.2059L262.501 83.7694ZM263.363 82.2635L264.604 79.5324L262.195 78.4372L260.808 80.6912L263.363 82.2635ZM264.051 82.6082L262.509 85.1811L262.79 85.3499L263.101 85.4539L264.051 82.6082ZM264.524 82.8231L262.981 85.3962L263.08 85.4551L263.182 85.5063L264.524 82.8231ZM268.311 84.286L267.522 87.1802L267.522 87.1802L268.311 84.286ZM272.831 84.8026L272.831 87.8026L272.831 87.8026L272.831 84.8026ZM273.433 84.7596L273.433 81.7596L273.215 81.7596L273 81.791L273.433 84.7596ZM274.594 84.5867L275.543 87.4327L275.647 87.3981L275.748 87.356L274.594 84.5867ZM275.456 83.9842L273.333 81.8638L273.272 81.9256L273.214 81.9909L275.456 83.9842ZM275.842 82.8231L278.842 82.8234V82.8231H275.842ZM275.413 81.9617L273.539 84.3045L273.614 84.3644L273.692 84.4193L275.413 81.9617ZM274.508 81.4022L275.75 78.671L275.72 78.6573L275.689 78.6444L274.508 81.4022ZM273.949 81.1873L272.806 83.9613L272.902 84.0006L272.999 84.0331L273.949 81.1873ZM272.443 80.7567L271.755 83.6768L271.852 83.6995L271.95 83.7158L272.443 80.7567ZM270.937 80.4129L271.587 77.4841L271.568 77.4799L271.549 77.476L270.937 80.4129ZM268.914 79.9822L268.156 82.885L268.216 82.9006L268.277 82.9138L268.914 79.9822ZM266.977 79.4656L266.103 82.3356L266.145 82.3484L266.188 82.3599L266.977 79.4656ZM265.126 78.8201L263.895 81.5559L263.953 81.582L264.012 81.6056L265.126 78.8201ZM263.492 77.9598L261.908 80.5076L261.918 80.5137L261.927 80.5197L263.492 77.9598ZM260.953 75.3777L258.356 76.8809L258.365 76.896L258.374 76.9111L260.953 75.3777ZM260.005 71.074L257.005 71.074L257.005 71.0741L260.005 71.074ZM260.824 67.4158L258.114 66.1287L258.108 66.1415L258.102 66.1544L260.824 67.4158ZM262.889 64.618L264.848 66.8902L264.854 66.8851L262.889 64.618ZM265.729 62.8543L264.575 60.0851L264.575 60.0851L265.729 62.8543ZM268.957 61.993L269.338 64.9686L269.376 64.9638L269.413 64.9581L268.957 61.993ZM167.005 61.7391L167.005 58.7391L167.005 58.7391L167.005 61.7391ZM172.858 62.9442L171.655 65.6926L171.674 65.7005L171.692 65.7082L172.858 62.9442ZM177.634 66.1277L175.513 68.2491L175.524 68.2602L175.535 68.2712L177.634 66.1277ZM180.861 70.9041L178.097 72.0702L178.104 72.0885L178.112 72.1066L180.861 70.9041ZM182.066 76.7557L185.066 76.7557L185.066 76.7556L182.066 76.7557ZM180.861 82.6082L178.112 81.4058L178.104 81.4239L178.097 81.4421L180.861 82.6082ZM177.634 87.3846L175.535 85.2411L175.524 85.2521L175.513 85.2633L177.634 87.3846ZM172.858 90.6112L174.024 93.3752L174.042 93.3675L174.06 93.3596L172.858 90.6112ZM167.005 91.7733L167.005 94.7733H167.005V91.7733ZM161.154 90.6112L159.951 93.3596L159.969 93.3675L159.988 93.3752L161.154 90.6112ZM156.334 87.3846L154.213 89.5059L154.224 89.5171L154.236 89.5282L156.334 87.3846ZM153.107 82.6082L150.343 83.7743L150.351 83.7926L150.358 83.8107L153.107 82.6082ZM151.946 76.7557L148.946 76.7556V76.7557H151.946ZM153.107 70.9471L150.358 69.7446L150.354 69.755L150.349 69.7654L153.107 70.9471ZM156.334 66.1707L154.213 64.0494L154.213 64.0494L156.334 66.1707ZM161.154 62.9442L162.32 65.7082L162.338 65.7006L162.356 65.6926L161.154 62.9442ZM203.046 75.9276L200.511 77.531L206.046 86.2844V75.9276H203.046ZM203.046 61.7205V58.7205H200.046V61.7205H203.046ZM211.28 61.7205H214.28V58.7205H211.28V61.7205ZM211.28 90.8875V93.8875H214.28V90.8875H211.28ZM203.224 90.8875L200.693 92.4982L201.577 93.8875H203.224V90.8875ZM194.239 76.7684L196.77 75.1577L191.239 66.4666V76.7684H194.239ZM194.239 90.8875V93.8875H197.239V90.8875H194.239ZM186.006 90.8875H183.006V93.8875H186.006V90.8875ZM186.006 61.7205V58.7205H183.006V61.7205H186.006ZM194.062 61.7205L196.598 60.1171L195.714 58.7205H194.062V61.7205ZM254.939 90.8875V93.8875H257.939V90.8875H254.939ZM246.396 90.8875H243.396V93.8875H246.396V90.8875ZM246.396 61.7205V58.7205H243.396V61.7205H246.396ZM254.939 61.7205H257.939V58.7205H254.939V61.7205ZM310.987 69.2889V72.2889H313.987V69.2889H310.987ZM302.754 69.2889V66.2889H299.754V69.2889H302.754ZM302.754 90.8875V93.8875H305.754V90.8875H302.754ZM294.433 90.8875H291.433V93.8875H294.433V90.8875ZM294.433 69.2889H297.433V66.2889H294.433V69.2889ZM286.201 69.2889H283.201V72.2889H286.201V69.2889ZM286.201 61.7205V58.7205H283.201V61.7205H286.201ZM310.987 61.7205H313.987V58.7205H310.987V61.7205ZM224.736 71.4969H221.736V79.9172L227.06 73.3938L224.736 71.4969ZM232.713 61.7225V58.7225H231.29L230.389 59.8256L232.713 61.7225ZM242.525 61.7225L244.795 63.6834L249.08 58.7225H242.525V61.7225ZM230.654 75.4666L228.383 73.5056L226.804 75.3347L228.255 77.2676L230.654 75.4666ZM242.151 90.783V93.783H248.154L244.55 88.982L242.151 90.783ZM232.713 90.783L230.389 92.6799L231.29 93.783H232.713V90.783ZM224.736 81.0086L227.06 79.1117L221.736 72.5883V81.0086H224.736ZM224.736 90.783V93.783H227.736V90.783H224.736ZM216.759 90.783H213.759V93.783H216.759V90.783ZM216.759 61.7225V58.7225H213.759V61.7225H216.759ZM224.736 61.7225H227.736V58.7225H224.736V61.7225ZM167.005 69.5272L167.005 66.5272L167.005 66.5272L167.005 69.5272ZM164.251 70.1297L165.479 72.8672L165.5 72.8579L165.52 72.8483L164.251 70.1297ZM162.057 71.6785L159.889 69.6049L159.865 69.63L159.842 69.6558L162.057 71.6785ZM160.594 74.0018L157.828 72.8415L157.818 72.8645L157.809 72.8876L160.594 74.0018ZM160.078 76.7557L157.078 76.7556V76.7557H160.078ZM160.594 79.5526L157.796 80.6354L157.818 80.6909L157.842 80.7454L160.594 79.5526ZM162.057 81.8768L159.799 83.8523L159.843 83.9024L159.889 83.9504L162.057 81.8768ZM164.251 83.4686L162.947 86.1702L163.002 86.1969L163.059 86.2213L164.251 83.4686ZM167.005 84.0281L167.005 87.0281H167.005V84.0281ZM169.716 83.4686L170.943 86.2063L170.964 86.1969L170.985 86.1871L169.716 83.4686ZM171.911 81.8768L169.699 79.8496L169.695 79.8538L171.911 81.8768ZM173.374 79.5526L176.159 80.6667L176.165 80.6511L176.171 80.6355L173.374 79.5526ZM173.89 76.7557L176.89 76.7557L176.89 76.7556L173.89 76.7557ZM173.374 74.0018L170.576 75.0849L170.582 75.1005L170.588 75.116L173.374 74.0018ZM171.911 71.6785L169.695 73.7014L169.719 73.7271L169.743 73.7522L171.911 71.6785ZM169.716 70.1297L168.412 72.8314L168.467 72.858L168.523 72.8824L169.716 70.1297ZM133.256 48.4188V51.4188C135.629 51.4188 137.898 51.8583 140.084 52.7386L141.205 49.9559L142.325 47.1731C139.424 46.0046 136.394 45.4188 133.256 45.4188V48.4188ZM141.205 49.9559L140.117 52.7519C142.313 53.6057 144.36 54.8617 146.264 56.5469L148.252 54.3006L150.241 52.0543C147.835 49.9244 145.183 48.2843 142.292 47.1599L141.205 49.9559ZM148.252 54.3006L146.277 52.0429L137.798 59.4618L139.774 61.7195L141.749 63.9772L150.228 56.5583L148.252 54.3006ZM139.774 61.7195L141.506 59.2698C139.009 57.5047 136.258 56.5467 133.309 56.5467V59.5467V62.5467C134.882 62.5467 136.441 63.0377 138.042 64.1693L139.774 61.7195ZM133.309 59.5467L133.309 56.5467C131.434 56.5468 129.638 56.9061 127.958 57.6529L129.176 60.3943L130.395 63.1358C131.258 62.7523 132.217 62.5467 133.309 62.5467L133.309 59.5467ZM129.176 60.3943L127.958 57.6529C126.327 58.378 124.895 59.39 123.693 60.685L125.891 62.7264L128.089 64.7677C128.724 64.0845 129.483 63.5412 130.395 63.1358L129.176 60.3943ZM125.891 62.7264L123.693 60.6851C122.516 61.9527 121.599 63.414 120.938 65.0436L123.718 66.1707L126.498 67.2978C126.898 66.3134 127.43 65.4783 128.09 64.7677L125.891 62.7264ZM123.718 66.1707L120.949 65.017C120.263 66.6632 119.923 68.3983 119.923 70.197L122.923 70.1971L125.923 70.1972C125.923 69.1704 126.114 68.2213 126.488 67.3245L123.718 66.1707ZM122.923 70.1971H119.923C119.923 72.0211 120.259 73.7831 120.938 75.458L123.718 74.3309L126.498 73.2037C126.118 72.2645 125.923 71.2698 125.923 70.1971H122.923ZM123.718 74.3309L120.949 75.4847C121.612 77.0769 122.528 78.5096 123.693 79.7638L125.891 77.7225L128.089 75.6811C127.417 74.9571 126.884 74.1283 126.487 73.177L123.718 74.3309ZM125.891 77.7225L123.73 79.8035C124.903 81.0215 126.272 82.0035 127.813 82.7521L129.124 80.0535L130.434 77.355C129.503 76.9025 128.716 76.3309 128.052 75.6415L125.891 77.7225ZM129.124 80.0535L127.905 82.795C129.585 83.5418 131.381 83.9012 133.256 83.9012L133.256 80.9012L133.256 77.9012C132.164 77.9012 131.205 77.6956 130.342 77.3121L129.124 80.0535ZM133.256 80.9012V83.9012C135.43 83.9012 137.491 83.3985 139.39 82.3797L137.972 79.7361L136.554 77.0926C135.556 77.6277 134.474 77.9012 133.256 77.9012V80.9012ZM137.972 79.7361L139.364 82.3936C141.255 81.4034 142.872 80.0178 144.213 78.2877L141.841 76.45L139.47 74.6123C138.621 75.7083 137.657 76.5146 136.58 77.0787L137.972 79.7361ZM141.841 76.45L139.95 78.7788L148.693 85.8794L150.584 83.5506L152.476 81.2218L143.733 74.1213L141.841 76.45ZM150.584 83.5506L148.26 81.6542C146.331 84.0181 144.07 85.8269 141.465 87.1139L142.794 89.8035L144.123 92.4931C147.524 90.8127 150.457 88.4527 152.909 85.447L150.584 83.5506ZM142.794 89.8035L141.479 87.1075C138.932 88.3504 136.204 88.9764 133.256 88.9764V91.9764V94.9764C137.091 94.9764 140.722 94.1533 144.11 92.4995L142.794 89.8035ZM133.256 91.9764L133.256 88.9764C130.6 88.9764 128.159 88.4847 125.902 87.5217L124.725 90.2811L123.548 93.0404C126.59 94.3383 129.836 94.9764 133.256 94.9764L133.256 91.9764ZM124.725 90.2811L125.947 87.5412C123.66 86.5215 121.671 85.156 119.958 83.443L117.836 85.5643L115.715 87.6856C117.959 89.9291 120.561 91.7091 123.503 93.021L124.725 90.2811ZM117.836 85.5643L119.995 83.4812C118.307 81.7314 116.97 79.7212 115.98 77.4321L113.226 78.6229L110.473 79.8136C111.743 82.7527 113.48 85.37 115.678 87.6474L117.836 85.5643ZM113.226 78.6229L115.985 77.4456C115.019 75.1799 114.531 72.7726 114.531 70.1971H111.531H108.531C108.531 73.5563 109.173 76.767 110.467 79.8002L113.226 78.6229ZM111.531 70.1971L114.531 70.1971C114.531 67.6216 115.019 65.2379 115.98 63.0157L113.226 61.825L110.473 60.6343C109.173 63.6402 108.531 66.838 108.531 70.197L111.531 70.1971ZM113.226 61.825L115.985 63.0023C116.975 60.6837 118.306 58.6869 119.977 56.9857L117.836 54.8836L115.696 52.7815C113.481 55.0369 111.738 57.6674 110.467 60.6477L113.226 61.825ZM117.836 54.8836L119.976 56.9861C121.681 55.2515 123.654 53.8996 125.916 52.9213L124.725 50.1678L123.534 47.4142C120.568 48.6969 117.949 50.4886 115.696 52.7811L117.836 54.8836ZM124.725 50.1678L125.933 52.9137C128.183 51.9237 130.614 51.4188 133.256 51.4188L133.256 48.4188L133.256 45.4188C129.823 45.4188 126.566 46.0804 123.517 47.4218L124.725 50.1678ZM272.314 61.7352L272.314 64.7352C273.897 64.7352 275.471 64.9327 277.04 65.3314L277.779 62.4236L278.517 59.5159C276.472 58.9967 274.403 58.7352 272.314 58.7352L272.314 61.7352ZM277.779 62.4236L277.051 65.3341C278.558 65.7108 280.064 66.3546 281.572 67.2942L283.159 64.7479L284.745 62.2015C282.753 60.9607 280.672 60.0546 278.506 59.5132L277.779 62.4236ZM283.159 64.7479L280.575 63.2239C279.903 64.3626 279.273 65.461 278.686 66.5185L281.308 67.9754L283.931 69.4323C284.491 68.4243 285.095 67.3708 285.743 66.2719L283.159 64.7479ZM281.308 67.9754L278.703 66.4869C278.137 67.4778 277.527 68.5275 276.873 69.636L279.458 71.16L282.042 72.6839C282.708 71.5548 283.331 70.4813 283.913 69.4639L281.308 67.9754ZM279.458 71.16L280.82 68.4873C279.237 67.6803 277.702 67.0354 276.218 66.5737L275.327 69.4383L274.435 72.3029C275.534 72.6445 276.752 73.1479 278.095 73.8327L279.458 71.16ZM275.327 69.4383L276.295 66.5988C274.692 66.0523 272.998 65.7928 271.238 65.7928V68.7928V71.7928C272.404 71.7928 273.437 71.9636 274.359 72.2778L275.327 69.4383ZM271.238 68.7928L271.238 65.7928C270.856 65.7928 270.446 65.8116 270.017 65.8446L270.248 68.8358L270.478 71.8269C270.795 71.8025 271.046 71.7928 271.238 71.7928L271.238 68.7928ZM270.248 68.8358L270.247 65.8358C269.564 65.8359 268.887 65.9506 268.233 66.1882L269.258 69.0076L270.283 71.8271C270.275 71.8301 270.265 71.8328 270.255 71.8345C270.246 71.8361 270.243 71.8358 270.248 71.8358L270.248 68.8358ZM269.258 69.0076L268.144 66.2222C267.459 66.4961 266.863 66.9025 266.363 67.4026L268.484 69.5242L270.605 71.6459C270.587 71.6637 270.557 71.69 270.515 71.7183C270.472 71.7468 270.424 71.7725 270.372 71.7931L269.258 69.0076ZM268.484 69.5242L266.226 67.5488C265.384 68.5118 265.182 69.6511 265.182 70.5145H268.182H271.182C271.182 70.5171 271.183 70.9957 270.742 71.4996L268.484 69.5242ZM268.182 70.5145L265.182 70.5148C265.182 71.3679 265.43 72.1583 265.854 72.8358L268.398 71.2459L270.942 69.656C271.079 69.8746 271.182 70.1774 271.182 70.5141L268.182 70.5145ZM268.398 71.2459L265.715 72.5879C266.269 73.6965 267.226 74.2742 267.872 74.5723L269.129 71.8485L270.387 69.1246C270.368 69.1161 270.449 69.1501 270.575 69.2533C270.704 69.3597 270.913 69.5676 271.081 69.9039L268.398 71.2459ZM269.129 71.8485L268.121 74.6737C268.638 74.8583 269.261 75.0416 269.964 75.2249L270.721 72.3221L271.479 69.4193C270.862 69.2583 270.424 69.1254 270.138 69.0232L269.129 71.8485ZM270.721 72.3221L269.931 75.2162C270.607 75.4006 271.335 75.5824 272.113 75.7619L272.788 72.8387L273.462 69.9155C272.748 69.7507 272.098 69.5881 271.511 69.4279L270.721 72.3221ZM272.788 72.8387L272.241 75.7885C272.918 75.9139 273.614 76.0775 274.33 76.2819L275.154 73.3973L275.978 70.5126C275.087 70.2583 274.206 70.0503 273.334 69.8888L272.788 72.8387ZM275.154 73.3973L274.426 76.3077C275.138 76.4858 275.873 76.705 276.629 76.9658L277.607 74.1297L278.585 71.2936C277.677 70.9806 276.776 70.7105 275.882 70.4869L275.154 73.3973ZM277.607 74.1297L276.718 76.9949C277.332 77.1855 277.886 77.4333 278.388 77.7344L279.931 75.1619L281.475 72.5895C280.542 72.0299 279.546 71.5903 278.496 71.2645L277.607 74.1297ZM279.931 75.1619L278.509 77.8033C279.008 78.072 279.43 78.3877 279.789 78.7471L281.911 76.6258L284.032 74.5045C283.244 73.7163 282.346 73.0552 281.353 72.5205L279.931 75.1619ZM281.911 76.6258L279.898 78.8503C280.176 79.1022 280.407 79.4145 280.589 79.8237L283.331 78.6053L286.072 77.3869C285.565 76.2469 284.85 75.2395 283.923 74.4012L281.911 76.6258ZM283.331 78.6053L280.595 79.8362C280.726 80.1277 280.822 80.4591 280.872 80.844L283.847 80.4559L286.822 80.0678C286.7 79.133 286.452 78.2304 286.066 77.3744L283.331 78.6053ZM283.847 80.4559L280.892 80.9702C280.978 81.4693 281.019 81.9428 281.019 82.3924H284.019H287.019C287.019 81.5799 286.946 80.762 286.803 79.9416L283.847 80.4559ZM284.019 82.3924L281.019 82.3923C281.019 83.8927 280.712 84.8301 280.334 85.4177L282.858 87.0399L285.382 88.662C286.553 86.8399 287.019 84.6787 287.019 82.3925L284.019 82.3924ZM282.858 87.0399L280.307 85.4607C279.822 86.2443 279.191 86.8586 278.38 87.3302L279.888 89.9236L281.396 92.5171C283.052 91.5541 284.402 90.2454 285.409 88.619L282.858 87.0399ZM279.888 89.9236L278.354 87.3457C277.497 87.8555 276.49 88.2263 275.297 88.4289L275.799 91.3865L276.302 94.3442C278.15 94.0304 279.869 93.4262 281.423 92.5016L279.888 89.9236ZM275.799 91.3865L275.233 88.4405C273.924 88.6922 272.621 88.8172 271.324 88.8172V91.8172V94.8172C273.01 94.8172 274.691 94.6546 276.366 94.3326L275.799 91.3865ZM271.324 91.8172L271.37 88.8176L270.672 88.8068L270.626 91.8065L270.579 94.8061L271.278 94.8169L271.324 91.8172ZM270.626 91.8065L270.718 88.8079C269.307 88.7644 267.902 88.5688 266.5 88.2183L265.772 91.1287L265.044 94.0391C266.856 94.4921 268.687 94.7481 270.533 94.805L270.626 91.8065ZM265.772 91.1287L266.51 88.221C264.896 87.8111 263.35 87.2485 261.869 86.5335L260.565 89.2352L259.261 91.9368C261.107 92.8284 263.033 93.5283 265.034 94.0364L265.772 91.1287ZM260.565 89.2352L260.568 86.2352C260.991 86.2356 261.308 86.3286 261.451 86.3756C261.616 86.43 261.736 86.4877 261.801 86.5205L260.436 89.1922L259.071 91.8639C259.199 91.9292 259.781 92.2343 260.562 92.2352L260.565 89.2352ZM260.436 89.1922L261.782 86.5111C261.554 86.3965 261.337 86.316 261.168 86.2596L260.221 89.1063L259.274 91.9529C259.271 91.9518 259.254 91.946 259.226 91.9348C259.198 91.9239 259.151 91.904 259.09 91.8733L260.436 89.1922ZM260.221 89.1063L261.764 86.5334C261.769 86.5364 261.793 86.5508 261.83 86.5785C261.866 86.6057 261.925 86.6534 261.996 86.7247L259.876 88.8475L257.757 90.9703C258.064 91.2768 258.392 91.5073 258.678 91.6791L260.221 89.1063ZM259.876 88.8475L262.56 87.5064C262.571 87.5282 262.613 87.6143 262.658 87.7482C262.681 87.818 262.712 87.9205 262.738 88.0495C262.763 88.1754 262.791 88.3612 262.791 88.5897H259.791H256.791C256.791 89.4116 257.124 90.0514 257.193 90.1885L259.876 88.8475ZM259.791 88.5897L262.791 88.6045C262.79 88.7668 262.776 88.9006 262.763 88.9924C262.75 89.0873 262.735 89.167 262.722 89.2263C262.697 89.3417 262.67 89.4326 262.653 89.4858C262.619 89.5914 262.588 89.6703 262.575 89.7015C262.559 89.7402 262.546 89.769 262.54 89.7834C262.533 89.7991 262.527 89.8098 262.525 89.8138C262.522 89.8218 262.531 89.8013 262.566 89.7357C262.631 89.6122 262.737 89.4146 262.893 89.1322L260.264 87.6863L257.636 86.2405C257.475 86.5315 257.346 86.7711 257.252 86.9487C257.208 87.0337 257.158 87.1297 257.115 87.2202C257.095 87.261 257.059 87.3384 257.021 87.4306C257.003 87.474 256.968 87.5629 256.932 87.6763C256.926 87.6944 256.793 88.0779 256.791 88.5749L259.791 88.5897ZM260.264 87.6863L262.922 89.0783C263.215 88.5178 263.567 87.8789 263.981 87.1621L261.382 85.6629L258.784 84.1637C258.337 84.9388 257.944 85.6499 257.607 86.2944L260.264 87.6863ZM261.382 85.6629L263.945 87.2228C264.359 86.5424 264.747 85.8872 265.106 85.2578L262.501 83.7694L259.897 82.2809C259.568 82.8565 259.209 83.4638 258.82 84.1031L261.382 85.6629ZM262.501 83.7694L265.135 85.2059C265.467 84.5984 265.726 84.1468 265.918 83.8358L263.363 82.2635L260.808 80.6912C260.54 81.1261 260.225 81.6781 259.868 82.3328L262.501 83.7694ZM263.363 82.2635L262.121 84.9946C262.255 85.0552 262.355 85.1033 262.428 85.1395C262.505 85.1783 262.525 85.1913 262.509 85.1811L264.051 82.6082L265.594 80.0353C265.299 79.8586 264.943 79.6863 264.604 79.5324L263.363 82.2635ZM264.051 82.6082L263.101 85.4539C263.084 85.448 263.04 85.4315 262.981 85.3962L264.524 82.8231L266.066 80.25C265.721 80.0429 265.362 79.8832 265.001 79.7626L264.051 82.6082ZM264.524 82.8231L263.182 85.5063C264.608 86.2192 266.055 86.7802 267.522 87.1802L268.311 84.286L269.1 81.3917C268.043 81.1031 266.964 80.6892 265.866 80.1398L264.524 82.8231ZM268.311 84.286L267.522 87.1802C269.054 87.5982 270.641 87.8026 272.271 87.8026V84.8026V81.8026C271.147 81.8026 270.092 81.6622 269.1 81.3917L268.311 84.286ZM272.271 84.8026V87.8026H272.831V84.8026V81.8026H272.271V84.8026ZM272.831 84.8026L272.831 87.8026C273.168 87.8025 273.514 87.7795 273.866 87.7282L273.433 84.7596L273 81.791C272.951 81.7982 272.895 81.8025 272.83 81.8026L272.831 84.8026ZM273.433 84.7596L273.433 87.7596C274.132 87.7595 274.846 87.6653 275.543 87.4327L274.594 84.5867L273.645 81.7408C273.655 81.7376 273.595 81.7596 273.433 81.7596L273.433 84.7596ZM274.594 84.5867L275.748 87.356C276.474 87.0537 277.144 86.6002 277.698 85.9775L275.456 83.9842L273.214 81.9909C273.257 81.9422 273.304 81.9015 273.349 81.8701C273.393 81.8391 273.426 81.8234 273.44 81.8175L274.594 84.5867ZM275.456 83.9842L277.578 86.1046C278.596 85.0851 278.842 83.8004 278.842 82.8234L275.842 82.8231L272.842 82.8227C272.842 82.8778 272.831 82.367 273.333 81.8638L275.456 83.9842ZM275.842 82.8231H278.842C278.842 81.5524 278.286 80.3114 277.133 79.5042L275.413 81.9617L273.692 84.4193C273.463 84.2588 273.221 84.0089 273.05 83.6659C272.883 83.3305 272.842 83.0245 272.842 82.8231H275.842ZM275.413 81.9617L277.286 79.6189C276.817 79.2432 276.304 78.9229 275.75 78.671L274.508 81.4022L273.267 84.1333C273.344 84.1683 273.435 84.2214 273.539 84.3045L275.413 81.9617ZM274.508 81.4022L275.689 78.6444C275.424 78.5309 275.16 78.4287 274.898 78.3415L273.949 81.1873L272.999 84.0331C273.082 84.0607 273.191 84.1016 273.327 84.16L274.508 81.4022ZM273.949 81.1873L275.091 78.4133C274.398 78.1278 273.678 77.9212 272.936 77.7975L272.443 80.7567L271.95 83.7158C272.24 83.7643 272.525 83.8452 272.806 83.9613L273.949 81.1873ZM272.443 80.7567L273.13 77.8365C272.629 77.7183 272.114 77.6011 271.587 77.4841L270.937 80.4129L270.287 83.3417C270.793 83.4539 271.282 83.5654 271.755 83.6768L272.443 80.7567ZM270.937 80.4129L271.549 77.476C270.869 77.3343 270.202 77.1923 269.551 77.0507L268.914 79.9822L268.277 82.9138C268.944 83.059 269.628 83.2046 270.325 83.3499L270.937 80.4129ZM268.914 79.9822L269.671 77.0795C269.022 76.9099 268.387 76.7405 267.766 76.5714L266.977 79.4656L266.188 82.3599C266.83 82.535 267.486 82.7101 268.156 82.885L268.914 79.9822ZM266.977 79.4656L267.851 76.5957C267.263 76.4167 266.727 76.2291 266.241 76.0347L265.126 78.8201L264.012 81.6056C264.674 81.8701 265.372 82.1129 266.103 82.3356L266.977 79.4656ZM265.126 78.8201L266.358 76.0844C265.894 75.8758 265.461 75.6472 265.056 75.3999L263.492 77.9598L261.927 80.5197C262.555 80.9033 263.212 81.2483 263.895 81.5559L265.126 78.8201ZM263.492 77.9598L265.076 75.4119C264.417 75.0026 263.914 74.4877 263.531 73.8444L260.953 75.3777L258.374 76.9111C259.254 78.3905 260.444 79.5973 261.908 80.5076L263.492 77.9598ZM260.953 75.3777L263.549 73.8746C263.269 73.3911 263.005 72.5302 263.005 71.074L260.005 71.074L257.005 71.0741C257.005 73.1752 257.374 75.1841 258.356 76.8809L260.953 75.3777ZM260.005 71.074H263.005C263.005 70.2603 263.178 69.4702 263.546 68.6772L260.824 67.4158L258.102 66.1544C257.379 67.7141 257.005 69.363 257.005 71.074H260.005ZM260.824 67.4158L263.534 68.703C263.928 67.8729 264.379 67.2949 264.848 66.8902L262.889 64.618L260.93 62.3457C259.736 63.3755 258.81 64.6636 258.114 66.1287L260.824 67.4158ZM262.889 64.618L264.854 66.8851C265.476 66.3456 266.15 65.9288 266.883 65.6235L265.729 62.8543L264.575 60.0851C263.243 60.6404 262.023 61.3989 260.924 62.3508L262.889 64.618ZM265.729 62.8543L266.883 65.6235C267.667 65.2966 268.484 65.0782 269.338 64.9686L268.957 61.993L268.575 59.0173C267.192 59.1947 265.856 59.5514 264.575 60.0851L265.729 62.8543ZM268.957 61.993L269.413 64.9581C270.382 64.809 271.349 64.7352 272.314 64.7352V61.7352V58.7352C271.041 58.7352 269.769 58.8326 268.5 59.0279L268.957 61.993ZM167.005 61.7391V64.7391C168.67 64.7391 170.21 65.0604 171.655 65.6926L172.858 62.9442L174.06 60.1957C171.834 59.2215 169.472 58.7391 167.005 58.7391V61.7391ZM172.858 62.9442L171.692 65.7082C173.188 66.3393 174.451 67.1875 175.513 68.2491L177.634 66.1277L179.756 64.0064C178.121 62.3716 176.2 61.098 174.024 60.1801L172.858 62.9442ZM177.634 66.1277L175.535 68.2712C176.618 69.3311 177.471 70.5878 178.097 72.0702L180.861 70.9041L183.625 69.738C182.701 67.5488 181.405 65.6208 179.733 63.9842L177.634 66.1277ZM180.861 70.9041L178.112 72.1066C178.745 73.5517 179.066 75.0916 179.066 76.7557L182.066 76.7557L185.066 76.7556C185.066 74.2892 184.583 71.9281 183.609 69.7017L180.861 70.9041ZM182.066 76.7557H179.066C179.066 78.4201 178.745 79.9606 178.112 81.4058L180.861 82.6082L183.609 83.8107C184.583 81.584 185.066 79.2221 185.066 76.7557H182.066ZM180.861 82.6082L178.097 81.4421C177.471 82.9245 176.618 84.1813 175.535 85.2411L177.634 87.3846L179.733 89.5281C181.405 87.8915 182.701 85.9635 183.625 83.7744L180.861 82.6082ZM177.634 87.3846L175.513 85.2633C174.443 86.3331 173.167 87.2014 171.655 87.8627L172.858 90.6112L174.06 93.3596C176.221 92.4145 178.129 91.1324 179.756 89.5059L177.634 87.3846ZM172.858 90.6112L171.692 87.8471C170.238 88.4603 168.685 88.7733 167.005 88.7733V91.7733V94.7733C169.457 94.7733 171.806 94.3111 174.024 93.3752L172.858 90.6112ZM167.005 91.7733L167.005 88.7733C165.326 88.7732 163.773 88.4603 162.32 87.8471L161.154 90.6112L159.988 93.3752C162.206 94.311 164.554 94.7732 167.005 94.7733L167.005 91.7733ZM161.154 90.6112L162.356 87.8627C160.839 87.1991 159.54 86.3244 158.433 85.241L156.334 87.3846L154.236 89.5282C155.883 91.141 157.797 92.4169 159.951 93.3596L161.154 90.6112ZM156.334 87.3846L158.456 85.2633C157.385 84.1927 156.516 82.9164 155.855 81.4058L153.107 82.6082L150.358 83.8107C151.304 85.9718 152.587 87.88 154.213 89.5059L156.334 87.3846ZM153.107 82.6082L155.871 81.4421C155.258 79.9895 154.946 78.4363 154.946 76.7557H151.946H148.946C148.946 79.2059 149.407 81.5551 150.343 83.7743L153.107 82.6082ZM151.946 76.7557L154.946 76.7557C154.946 75.0753 155.258 73.5432 155.864 72.1288L153.107 70.9471L150.349 69.7654C149.407 71.9651 148.946 74.3057 148.946 76.7556L151.946 76.7557ZM153.107 70.9471L155.855 72.1495C156.516 70.6389 157.385 69.3626 158.456 68.292L156.334 66.1707L154.213 64.0494C152.587 65.6753 151.304 67.5835 150.358 69.7446L153.107 70.9471ZM156.334 66.1707L158.456 68.292C159.552 67.196 160.832 66.336 162.32 65.7082L161.154 62.9442L159.988 60.1801C157.804 61.1013 155.871 62.3917 154.213 64.0494L156.334 66.1707ZM161.154 62.9442L162.356 65.6926C163.801 65.0604 165.341 64.7391 167.005 64.7391L167.005 61.7391L167.005 58.7391C164.539 58.7391 162.178 59.2216 159.951 60.1957L161.154 62.9442ZM203.046 75.9276H206.046V61.7205H203.046H200.046V75.9276H203.046ZM203.046 61.7205V64.7205H211.28V61.7205V58.7205H203.046V61.7205ZM211.28 61.7205H208.28V90.8875H211.28H214.28V61.7205H211.28ZM211.28 90.8875V87.8875H203.224V90.8875V93.8875H211.28V90.8875ZM203.224 90.8875L205.755 89.2768L196.77 75.1577L194.239 76.7684L191.708 78.3791L200.693 92.4982L203.224 90.8875ZM194.239 76.7684H191.239V90.8875H194.239H197.239V76.7684H194.239ZM194.239 90.8875V87.8875H186.006V90.8875V93.8875H194.239V90.8875ZM186.006 90.8875H189.006V61.7205H186.006H183.006V90.8875H186.006ZM186.006 61.7205V64.7205H194.062V61.7205V58.7205H186.006V61.7205ZM194.062 61.7205L191.526 63.324L200.511 77.531L203.046 75.9276L205.582 74.3241L196.598 60.1171L194.062 61.7205ZM254.939 90.8875V87.8875H246.396V90.8875V93.8875H254.939V90.8875ZM246.396 90.8875H249.396V61.7205H246.396H243.396V90.8875H246.396ZM246.396 61.7205V64.7205H254.939V61.7205V58.7205H246.396V61.7205ZM254.939 61.7205H251.939V90.8875H254.939H257.939V61.7205H254.939ZM310.987 69.2889V66.2889H302.754V69.2889V72.2889H310.987V69.2889ZM302.754 69.2889H299.754V90.8875H302.754H305.754V69.2889H302.754ZM302.754 90.8875V87.8875H294.433V90.8875V93.8875H302.754V90.8875ZM294.433 90.8875H297.433V69.2889H294.433H291.433V90.8875H294.433ZM294.433 69.2889V66.2889H286.201V69.2889V72.2889H294.433V69.2889ZM286.201 69.2889H289.201V61.7205H286.201H283.201V69.2889H286.201ZM286.201 61.7205V64.7205H310.987V61.7205V58.7205H286.201V61.7205ZM310.987 61.7205H307.987V69.2889H310.987H313.987V61.7205H310.987ZM224.736 71.4969L227.06 73.3938L235.038 63.6194L232.713 61.7225L230.389 59.8256L222.412 69.6L224.736 71.4969ZM232.713 61.7225V64.7225H242.525V61.7225V58.7225H232.713V61.7225ZM242.525 61.7225L240.255 59.7615L228.383 73.5056L230.654 75.4666L232.924 77.4276L244.795 63.6834L242.525 61.7225ZM230.654 75.4666L228.255 77.2676L239.752 92.584L242.151 90.783L244.55 88.982L233.053 73.6656L230.654 75.4666ZM242.151 90.783V87.783H232.713V90.783V93.783H242.151V90.783ZM232.713 90.783L235.038 88.8861L227.06 79.1117L224.736 81.0086L222.412 82.9055L230.389 92.6799L232.713 90.783ZM224.736 81.0086H221.736V90.783H224.736H227.736V81.0086H224.736ZM224.736 90.783V87.783H216.759V90.783V93.783H224.736V90.783ZM216.759 90.783H219.759V61.7225H216.759H213.759V90.783H216.759ZM216.759 61.7225V64.7225H224.736V61.7225V58.7225H216.759V61.7225ZM224.736 61.7225H221.736V71.4969H224.736H227.736V61.7225H224.736ZM167.005 69.5272L167.005 66.5272C165.604 66.5272 164.251 66.8192 162.983 67.4111L164.251 70.1297L165.52 72.8483C165.973 72.6371 166.457 72.5272 167.006 72.5272L167.005 69.5272ZM164.251 70.1297L163.024 67.3922C161.839 67.9237 160.788 68.6654 159.889 69.6049L162.057 71.6785L164.225 73.7522C164.588 73.3723 165.001 73.0815 165.479 72.8672L164.251 70.1297ZM162.057 71.6785L159.842 69.6558C158.99 70.5886 158.323 71.6604 157.828 72.8415L160.594 74.0018L163.361 75.162C163.611 74.5648 163.92 74.0879 164.273 73.7013L162.057 71.6785ZM160.594 74.0018L157.809 72.8876C157.316 74.1203 157.078 75.4186 157.078 76.7556L160.078 76.7557L163.078 76.7558C163.078 76.1424 163.184 75.6041 163.38 75.116L160.594 74.0018ZM160.078 76.7557H157.078C157.078 78.0933 157.316 79.3935 157.796 80.6354L160.594 79.5526L163.392 78.4697C163.184 77.9332 163.078 77.3685 163.078 76.7557H160.078ZM160.594 79.5526L157.842 80.7454C158.334 81.8827 158.987 82.9235 159.799 83.8523L162.057 81.8768L164.315 79.9012C163.923 79.4531 163.6 78.9435 163.347 78.3597L160.594 79.5526ZM162.057 81.8768L159.889 83.9504C160.771 84.8728 161.797 85.6147 162.947 86.1702L164.251 83.4686L165.556 80.767C165.043 80.5193 164.605 80.2001 164.225 79.8031L162.057 81.8768ZM164.251 83.4686L163.059 86.2213C164.31 86.7636 165.636 87.0281 167.005 87.0281L167.005 84.0281L167.006 81.0281C166.424 81.0281 165.913 80.9192 165.444 80.7159L164.251 83.4686ZM167.005 84.0281V87.0281C168.374 87.0281 169.7 86.7635 170.943 86.2063L169.716 83.4686L168.49 80.7309C168.069 80.9192 167.587 81.0281 167.005 81.0281V84.0281ZM169.716 83.4686L170.985 86.1871C172.181 85.6291 173.24 84.8695 174.126 83.8997L171.911 81.8768L169.695 79.8538C169.376 80.2033 168.973 80.505 168.448 80.75L169.716 83.4686ZM171.911 81.8768L174.122 83.904C174.997 82.9497 175.679 81.8655 176.159 80.6667L173.374 79.5526L170.588 78.4384C170.379 78.9607 170.087 79.427 169.699 79.8496L171.911 81.8768ZM173.374 79.5526L176.171 80.6355C176.652 79.3934 176.89 78.0933 176.89 76.7557H173.89H170.89C170.89 77.3686 170.783 77.9332 170.576 78.4696L173.374 79.5526ZM173.89 76.7557L176.89 76.7556C176.89 75.4186 176.652 74.1204 176.159 72.8875L173.374 74.0018L170.588 75.116C170.783 75.6041 170.89 76.1424 170.89 76.7558L173.89 76.7557ZM173.374 74.0018L176.171 72.9186C175.691 71.6778 174.995 70.5626 174.079 69.6049L171.911 71.6785L169.743 73.7522C170.089 74.1138 170.368 74.5476 170.576 75.0849L173.374 74.0018ZM171.911 71.6785L174.126 69.6556C173.224 68.6677 172.138 67.9097 170.909 67.377L169.716 70.1297L168.523 72.8824C169.015 73.0955 169.393 73.37 169.695 73.7014L171.911 71.6785ZM169.716 70.1297L171.02 67.428C169.76 66.8193 168.407 66.5272 167.005 66.5272V69.5272V72.5272C167.555 72.5272 168.009 72.637 168.412 72.8314L169.716 70.1297Z" fill="white" mask="url(#path-1-outside-1_1500_955)"/>
<path d="M54.3115 11.0264L77.8828 38.6289L113.985 34.8604L117.008 34.5439L115.42 37.1357L96.4512 68.083L111.193 101.254L112.428 104.031L109.473 103.321L74.1758 94.8447L47.1855 119.115L44.9258 121.147L44.6875 118.117L42.1973 86.4522L42.126 85.5488L42.8926 85.0654L53.6699 78.2715L55.7715 76.9473L55.9658 79.4229L56.8906 91.1895L69.627 79.7383L70.2129 79.2109L70.9795 79.3955L87.6328 83.3936L80.6777 67.7432L80.3574 67.0225L80.7695 66.3496L89.7188 51.7471L72.6846 53.5254L71.9004 53.6074L71.3887 53.0078L60.2656 39.9844L57.9697 50.7529L57.4512 53.1836L55.542 51.5928L45.752 43.4307L45.0566 42.8506L45.2451 41.9658L51.7031 11.6875L52.3379 8.71484L54.3115 11.0264Z" fill="url(#paint1_linear_1500_955)" stroke="white" stroke-width="3"/>
<path d="M40.6436 49.1622L50.4258 57.3174L52.3311 58.9053L50.0391 59.8555L39.8066 64.0928L50.0254 70.001L52.1748 71.2442L50.0742 72.5684L39.2969 79.3643L38.5303 79.8467L37.7461 79.3936L10.249 63.4923L7.61816 61.9708L10.4258 60.8087L39.1094 48.9288L39.9473 48.5821L40.6436 49.1622Z" fill="url(#paint2_linear_1500_955)" stroke="white" stroke-width="3"/>
<defs>
<linearGradient id="paint0_linear_1500_955" x1="219.248" y1="49.5048" x2="219.248" y2="91.5802" gradientUnits="userSpaceOnUse">
<stop stop-color="#00AAD4"/>
<stop offset="1" stop-color="#0088AA"/>
</linearGradient>
<linearGradient id="paint1_linear_1500_955" x1="110.301" y1="101.856" x2="61.3742" y2="52.9292" gradientUnits="userSpaceOnUse">
<stop stop-color="#AA8800"/>
<stop offset="1" stop-color="#D4AA00"/>
</linearGradient>
<linearGradient id="paint2_linear_1500_955" x1="29.9685" y1="23.164" x2="89.2072" y2="82.4028" gradientUnits="userSpaceOnUse">
<stop stop-color="#00AAD4"/>
<stop offset="1" stop-color="#0088AA"/>
</linearGradient>
</defs>
</svg>
